<svg xmlns="http://www.w3.org/2000/svg" width="400" height="400" viewBox="0 0 400 400">
<g>
<path d="M 0.00 0.00 L 400.00 0.00 L 400.00 400.00 L 0.00 400.00 ZM 100.00 109.30 L 100.00 300.00 L 107.75 300.00 C113.67,299.99 116.26,299.53 118.70,298.04 C119.68,297.45 120.50,297.07 121.20,296.52 C125.02,293.55 125.02,285.67 125.00,210.63 C125.00,205.73 125.00,200.54 125.00,195.05 L 125.00 100.00 L 117.25 100.01 C108.36,100.03 105.48,101.17 102.28,105.91 ZM 275.00 204.95 L 275.00 300.00 L 282.75 299.99 C291.64,299.97 294.52,298.83 297.72,294.09 L 300.00 290.70 L 300.00 100.00 L 292.25 100.00 C286.33,100.01 283.74,100.47 281.30,101.96 C280.32,102.55 279.50,102.93 278.80,103.48 C274.98,106.45 274.98,114.33 275.00,189.37 C275.00,194.27 275.00,199.46 275.00,204.95 ZM 238.00 157.21 L 238.00 300.00 L 245.69 300.00 C254.09,300.00 258.81,297.90 260.95,293.22 C261.66,291.65 262.00,260.27 262.00,195.45 L 262.00 100.00 L 250.00 100.00 L 250.00 149.75 L 246.91 150.37 C245.21,150.71 242.51,152.39 240.91,154.10 ZM 138.00 204.45 L 138.00 300.00 L 150.00 300.00 L 150.00 275.00 C150.00,251.86 150.13,250.00 151.75,249.99 C154.20,249.98 159.12,246.57 160.65,243.81 C161.65,241.99 161.94,226.37 161.96,170.75 L 162.00 100.00 L 154.45 100.00 C149.66,100.00 145.83,100.55 143.97,101.52 C143.09,101.97 142.35,102.26 141.71,102.70 C137.99,105.30 137.99,113.24 138.00,190.65 C138.00,195.03 138.00,199.62 138.00,204.45 ZM 175.01 242.25 L 175.00 300.00 L 188.00 300.00 L 188.00 225.00 L 201.75 224.99 C217.03,224.97 219.16,224.37 222.72,219.09 C224.91,215.84 225.00,214.88 225.00,195.35 L 225.00 175.00 L 204.65 175.00 C185.12,175.00 184.16,175.09 180.91,177.28 C179.05,178.53 176.97,180.67 176.28,182.03 C175.32,183.92 175.03,198.06 175.01,242.25 Z" fill="rgb(249,93,0)"/>
<path d="M 100.00 204.65 L 100.00 109.30 L 102.28 105.91 C105.48,101.17 108.36,100.03 117.25,100.01 L 125.00 100.00 L 125.00 195.05 C125.00,299.98 125.37,293.98 118.70,298.04 C116.26,299.53 113.67,299.99 107.75,300.00 L 100.00 300.00 L 100.00 204.65 ZM 138.00 204.45 C138.00,99.55 137.70,104.76 143.97,101.52 C145.83,100.55 149.66,100.00 154.45,100.00 L 162.00 100.00 L 161.96 170.75 C161.94,226.37 161.65,241.99 160.65,243.81 C159.12,246.57 154.20,249.98 151.75,249.99 C150.13,250.00 150.00,251.86 150.00,275.00 L 150.00 300.00 L 144.00 300.00 L 138.00 300.00 L 138.00 204.45 ZM 175.01 242.25 C175.03,198.06 175.32,183.92 176.28,182.03 C176.97,180.67 179.05,178.53 180.91,177.28 C184.16,175.09 185.12,175.00 204.65,175.00 L 225.00 175.00 L 225.00 195.35 C225.00,214.88 224.91,215.84 222.72,219.09 C219.16,224.37 217.03,224.97 201.75,224.99 L 188.00 225.00 L 188.00 262.50 L 188.00 300.00 L 181.50 300.00 L 175.00 300.00 L 175.01 242.25 ZM 238.00 228.61 L 238.00 157.21 L 240.91 154.10 C242.51,152.39 245.21,150.71 246.91,150.37 L 250.00 149.75 L 250.00 124.88 L 250.00 100.00 L 256.00 100.00 L 262.00 100.00 L 262.00 195.45 C262.00,260.27 261.66,291.65 260.95,293.22 C258.81,297.90 254.09,300.00 245.69,300.00 L 238.00 300.00 L 238.00 228.61 ZM 275.00 204.95 C275.00,100.02 274.63,106.02 281.30,101.96 C283.74,100.47 286.33,100.01 292.25,100.00 L 300.00 100.00 L 300.00 195.35 L 300.00 290.70 L 297.72 294.09 C294.52,298.83 291.64,299.97 282.75,299.99 L 275.00 300.00 L 275.00 204.95 Z" fill="rgb(254,247,236)"/>
</g>
</svg>