<svg xmlns="http://www.w3.org/2000/svg" viewBox="0 0 28 28" role="img"><title>Mailjet</title><path d="M25.7941 2.89673C25.1182 2.21811 24.1058 2.01122 23.2148 2.36708L3.35823 10.3091C2.47271 10.665 1.89616 11.476 1.85754 12.4305C1.81892 13.385 2.32374 14.2402 3.17616 14.6678L9.05478 17.6057L11.1927 15.4678L5.41064 12.5767L23.2451 5.44294L16.1113 23.2774L13.2203 17.4954L11.0824 19.6333L14.0203 25.5119C14.4313 26.334 15.2424 26.8333 16.1527 26.8333C16.1858 26.8333 16.2217 26.8333 16.2575 26.8333C17.212 26.7947 18.0231 26.2181 18.3789 25.3326L26.321 5.47329C26.6768 4.58501 26.4699 3.5726 25.7913 2.89398L25.7941 2.89673Z" fill="#857AEB"/></svg>
